<svg width="32" height="35" viewBox="0 0 32 35" version="1.1" xmlns="http://www.w3.org/2000/svg" xmlns:xlink="http://www.w3.org/1999/xlink" xmlns:figma="http://www.figma.com/figma/ns">
<title>logo</title>
<desc>Created using Figma</desc>
<g id="Canvas" transform="translate(922 1150)" figma:type="canvas">
<g id="logo" figma:type="instance">
<g id="Combined Shape" figma:type="vector-operation">
<use xlink:href="#path0_stroke" transform="translate(-918.739 -1147)" fill="#FFFFFF"/>
</g>
</g>
</g>
<defs>
<path id="path0_stroke" d="M 4.26337 0.0579834L 4.26337 -0.942017C 3.91026 -0.942017 3.58333 -0.755797 3.40323 -0.45208C 3.22312 -0.148362 3.21654 0.227825 3.38592 0.537655L 4.26337 0.0579834ZM 12.4937 23.1752L 11.6151 23.6527C 11.7865 23.9682 12.1139 24.1675 12.4729 24.175C 12.8318 24.1824 13.1673 23.9969 13.3517 23.6888L 12.4937 23.1752ZM 18.3708 13.3573L 19.2289 13.8709C 19.4148 13.5604 19.4184 13.1736 19.2382 12.8596C 19.0581 12.5457 18.7223 12.3536 18.3604 12.3574L 18.3708 13.3573ZM 12.4498 15.0332L 11.5724 15.5129C 11.7448 15.8282 12.0731 16.0268 12.4324 16.0331C 12.7917 16.0393 13.1267 15.8523 13.31 15.5432L 12.4498 15.0332ZM 0 0.189697L 0.878599 -0.287862C 0.660167 -0.689727 0.196919 -0.892167 -0.246374 -0.779478C -0.689667 -0.666788 -1 -0.267695 -1 0.189697L 0 0.189697ZM 0 29L -1 29C -1 29.5523 -0.552285 30 0 30L 0 29ZM 4.09698 29L 4.09698 30C 4.64927 30 5.09698 29.5523 5.09698 29L 4.09698 29ZM 4.09698 13.507L 4.08651 12.507C 3.53834 12.5128 3.09698 12.9588 3.09698 13.507L 4.09698 13.507ZM 21.3624 0L 22.3624 0C 22.3624 -0.450491 22.0611 -0.845366 21.6267 -0.964437C 21.1922 -1.08351 20.7318 -0.897374 20.5021 -0.509827L 21.3624 0ZM 25.4147 0.0579834L 26.4147 0.0574664C 26.4144 -0.494616 25.9668 -0.942017 25.4147 -0.942017L 25.4147 0.0579834ZM 25.4296 28.8652L 25.4296 29.8652C 25.6949 29.8652 25.9493 29.7598 26.1369 29.5722C 26.3244 29.3845 26.4297 29.13 26.4296 28.8647L 25.4296 28.8652ZM 21.3624 28.8652L 20.3624 28.8652C 20.3624 29.4175 20.8101 29.8652 21.3624 29.8652L 21.3624 28.8652ZM 3.38592 0.537655L 10.6952 13.9083L 12.4501 12.9489L 5.14081 -0.421688L 3.38592 0.537655ZM 21.328 -0.942017L 4.26337 -0.942017L 4.26337 1.05798L 21.328 1.05798L 21.328 -0.942017ZM 14.2728 13.9193L 22.1882 0.567953L 20.4678 -0.451986L 12.5524 12.8993L 14.2728 13.9193ZM 13.4021 12.4094L 11.5622 12.4286L 11.5831 14.4285L 13.4231 14.4092L 13.4021 12.4094ZM 6.34216 13.9518L 11.6151 23.6527L 13.3723 22.6976L 8.09936 12.9967L 6.34216 13.9518ZM 13.3517 23.6888L 19.2289 13.8709L 17.5128 12.8437L 11.6356 22.6615L 13.3517 23.6888ZM 18.3604 12.3574L 13.4021 12.4094L 13.4231 14.4092L 18.3813 14.3572L 18.3604 12.3574ZM 13.31 15.5432L 14.2728 13.9193L 12.5524 12.8993L 11.5896 14.5232L 13.31 15.5432ZM 10.6952 13.9083L 11.5724 15.5129L 13.3273 14.5535L 12.4501 12.9489L 10.6952 13.9083ZM 11.5621 12.4286L 7.21027 12.4743L 7.23125 14.4742L 11.5831 14.4285L 11.5621 12.4286ZM -0.878599 0.667257L 6.34216 13.9518L 8.09936 12.9967L 0.878599 -0.287862L -0.878599 0.667257ZM 1 29L 1 0.189697L -1 0.189697L -1 29L 1 29ZM 4.09698 28L 0 28L 0 30L 4.09698 30L 4.09698 28ZM 3.09698 13.507L 3.09698 29L 5.09698 29L 5.09698 13.507L 3.09698 13.507ZM 7.21029 12.4743L 4.08651 12.507L 4.10746 14.5069L 7.23124 14.4742L 7.21029 12.4743ZM 21.3624 -0.942017L 21.328 -0.942017L 21.328 1.05798L 21.3624 1.05798L 21.3624 -0.942017ZM 22.1883 0.567811L 22.2226 0.509827L 20.5021 -0.509827L 20.4677 -0.451844L 22.1883 0.567811ZM 20.3624 0L 20.3624 0.0579834L 22.3624 0.0579834L 22.3624 0L 20.3624 0ZM 25.4147 -0.942017L 21.3624 -0.942017L 21.3624 1.05798L 25.4147 1.05798L 25.4147 -0.942017ZM 26.4296 28.8647L 26.4147 0.0574664L 24.4147 0.0585004L 24.4296 28.8658L 26.4296 28.8647ZM 21.3624 29.8652L 25.4296 29.8652L 25.4296 27.8652L 21.3624 27.8652L 21.3624 29.8652ZM 20.3624 0.0579834L 20.3624 28.8652L 22.3624 28.8652L 22.3624 0.0579834L 20.3624 0.0579834Z"/>
</defs>
</svg>
